<svg width="41" height="53" viewBox="0 0 41 53" fill="none" xmlns="http://www.w3.org/2000/svg">
<path d="M36.9286 20C36.9286 25.1665 35.0297 30.1134 31.662 33.7541C28.2957 37.3934 23.7399 39.4286 19 39.4286C14.2601 39.4286 9.70433 37.3934 6.33801 33.7541C2.97031 30.1134 1.07143 25.1665 1.07143 20" stroke="url(#paint0_linear_1812_3261)" stroke-width="1.14286" stroke-linecap="round" stroke-linejoin="round"/>
<path d="M26.523 22.2112L19.6625 29.0717C19.5917 29.1426 19.5076 29.1988 19.4151 29.2372C19.3226 29.2755 19.2234 29.2953 19.1232 29.2953C19.023 29.2953 18.9238 29.2755 18.8313 29.2372C18.7388 29.1988 18.6547 29.1426 18.5839 29.0717L11.7234 22.2112C11.5804 22.0682 11.5 21.8742 11.5 21.6719C11.5 21.4696 11.5804 21.2756 11.7234 21.1326C11.8664 20.9895 12.0604 20.9092 12.2627 20.9092C12.465 20.9092 12.659 20.9895 12.802 21.1326L18.3609 26.6924V11.7623C18.3609 11.5601 18.4412 11.3662 18.5842 11.2233C18.7271 11.0803 18.921 11 19.1232 11C19.3254 11 19.5193 11.0803 19.6622 11.2233C19.8052 11.3662 19.8855 11.5601 19.8855 11.7623V26.6924L25.4444 21.1326C25.5874 20.9895 25.7814 20.9092 25.9837 20.9092C26.186 20.9092 26.38 20.9895 26.523 21.1326C26.666 21.2756 26.7464 21.4696 26.7464 21.6719C26.7464 21.8742 26.666 22.0682 26.523 22.2112Z" fill="url(#paint1_linear_1812_3261)"/>
<defs>
<linearGradient id="paint0_linear_1812_3261" x1="11.4844" y1="10.625" x2="35.2357" y2="43.2831" gradientUnits="userSpaceOnUse">
<stop offset="0.463542" stop-color="#00FDEE"/>
<stop offset="1" stop-color="#3645FF" stop-opacity="0.5"/>
</linearGradient>
<linearGradient id="paint1_linear_1812_3261" x1="7.55179" y1="10.4507" x2="26.9268" y2="29.2007" gradientUnits="userSpaceOnUse">
<stop offset="0.463542" stop-color="#00FDEE"/>
<stop offset="1" stop-color="#3645FF" stop-opacity="0.5"/>
</linearGradient>
</defs>
</svg>
