<svg width="41" height="41" viewBox="0 0 41 41" fill="none" xmlns="http://www.w3.org/2000/svg">
<path d="M12.0748 20.4989L26.6507 23.8722C27.3997 24.0456 28.1139 23.4107 28.2492 22.4512L30.435 6.95284L33.2672 12.1809C33.6999 12.9797 34.5641 13.1797 35.1877 12.6254C35.8112 12.0711 35.9673 10.9641 35.5346 10.1653L30.8142 1.45181C30.3815 0.653075 29.5173 0.453077 28.8938 1.00737L22.0917 7.05424C21.4682 7.60854 21.312 8.71556 21.7447 9.5143C22.1774 10.313 23.0416 10.513 23.6652 9.95874L27.7351 6.3407L25.7956 20.0924L12.564 17.0303C11.815 16.8569 11.1008 17.4918 10.9655 18.4513C10.8415 19.4006 11.345 20.3301 12.0748 20.4989Z" fill="url(#paint0_linear_1758_948)"/>
<path d="M11.8353 19.9684L11.9634 18.9997L12.7195 19.1638L25.9766 22.0402C26.3003 22.1104 26.6125 21.8263 26.6673 21.4116C26.7328 20.9165 26.4623 20.4286 26.0757 20.3447L11.4718 17.1762C11.1289 17.1018 10.8279 17.3756 10.7698 17.8149L8.71997 33.3184L8.4176 35.6053L7.40859 33.7856L4.5398 28.612C4.28782 28.1576 3.85386 28.1383 3.61188 28.3585C3.3699 28.5787 3.2412 29.1099 3.49318 29.5643L8.28781 38.2111C8.53979 38.6655 8.97375 38.6848 9.21573 38.4646L15.9657 32.3227C16.2077 32.1025 16.3364 31.5712 16.0844 31.1168C15.8324 30.6624 15.3985 30.6431 15.1565 30.8633L11.1177 34.5382L9.74356 35.7886L10.0136 33.7465L11.8353 19.9684Z" fill="url(#paint1_linear_1758_948)" stroke="url(#paint2_linear_1758_948)" stroke-width="1.62698"/>
<defs>
<linearGradient id="paint0_linear_1758_948" x1="20.0596" y1="8.86074" x2="30.7357" y2="20.8702" gradientUnits="userSpaceOnUse">
<stop offset="0.463542" stop-color="#00FDEE"/>
<stop offset="1" stop-color="#3645FF"/>
</linearGradient>
<linearGradient id="paint1_linear_1758_948" x1="18.3753" y1="31.2005" x2="7.59033" y2="19.3478" gradientUnits="userSpaceOnUse">
<stop offset="0.463542" stop-color="#00FDEE"/>
<stop offset="1" stop-color="#3645FF"/>
</linearGradient>
<linearGradient id="paint2_linear_1758_948" x1="18.3753" y1="31.2005" x2="7.59033" y2="19.3478" gradientUnits="userSpaceOnUse">
<stop offset="0.463542" stop-color="#00FDEE"/>
<stop offset="1" stop-color="#3645FF"/>
</linearGradient>
</defs>
</svg>
