<svg width="43" height="42" viewBox="0 0 43 42" fill="none" xmlns="http://www.w3.org/2000/svg">
<path fill-rule="evenodd" clip-rule="evenodd" d="M8.54004 13.06C8.54004 6.39944 13.9395 1 20.6 1C27.2606 1 32.66 6.39944 32.66 13.06V29.14C32.66 35.8005 27.2606 41.2 20.6 41.2C13.9395 41.2 8.54004 35.8005 8.54004 29.14V13.06ZM12.56 28.135C12.56 32.5753 16.1597 36.175 20.6 36.175C25.0404 36.175 28.64 32.5753 28.64 28.135V14.065C28.64 9.62462 25.0404 6.02499 20.6 6.02499C16.1597 6.02499 12.56 9.62462 12.56 14.065V28.135Z" fill="url(#paint0_linear_1758_938)"/>
<path fill-rule="evenodd" clip-rule="evenodd" d="M12.5601 33.1599C5.89956 33.1599 0.500122 27.7605 0.500122 21.0999C0.500122 14.4394 5.89956 9.03994 12.5601 9.03994H28.6401C35.3006 9.03994 40.7001 14.4394 40.7001 21.0999C40.7001 27.7605 35.3006 33.1599 28.6401 33.1599H12.5601ZM27.6351 29.1399C32.0755 29.1399 35.6751 25.5403 35.6751 21.0999C35.6751 16.6596 32.0755 13.0599 27.6351 13.0599H13.5651C9.12474 13.0599 5.52512 16.6596 5.52512 21.0999C5.52512 25.5403 9.12474 29.1399 13.5651 29.1399H27.6351Z" fill="url(#paint1_linear_1758_938)"/>
<defs>
<linearGradient id="paint0_linear_1758_938" x1="20.0077" y1="14.1894" x2="15.751" y2="50.8812" gradientUnits="userSpaceOnUse">
<stop stop-color="#00FDEE"/>
<stop offset="1" stop-color="#00FDEE" stop-opacity="0"/>
</linearGradient>
<linearGradient id="paint1_linear_1758_938" x1="31.4596" y1="32.2885" x2="35.1761" y2="8.73955" gradientUnits="userSpaceOnUse">
<stop stop-color="#00FDEE"/>
<stop offset="1" stop-color="#3645FF" stop-opacity="0"/>
</linearGradient>
</defs>
</svg>
