<svg width="43" height="42" viewBox="0 0 43 42" fill="none" xmlns="http://www.w3.org/2000/svg">
<g clip-path="url(#clip0_1758_918)">
<path d="M33.1626 23.6124C33.1626 12.3062 20.6001 3.51245 20.6001 3.51245C20.6001 3.51245 8.0376 12.3062 8.0376 23.6124C8.0376 26.9442 9.36114 30.1395 11.7171 32.4954C14.073 34.8514 17.2683 36.1749 20.6001 36.1749C23.9319 36.1749 27.1272 34.8514 29.4831 32.4954C31.839 30.1395 33.1626 26.9442 33.1626 23.6124Z" stroke="url(#paint0_linear_1758_918)" stroke-width="2.6875" stroke-linecap="round" stroke-linejoin="round"/>
<circle cx="13.5885" cy="28.1117" r="1.86977" fill="url(#paint1_linear_1758_918)"/>
<circle cx="20.1327" cy="32.786" r="1.86977" fill="url(#paint2_linear_1758_918)"/>
<ellipse cx="17.328" cy="23.4371" rx="1.86976" ry="1.86977" fill="url(#paint3_linear_1758_918)"/>
<circle cx="20.1327" cy="28.1117" r="1.86977" fill="url(#paint4_linear_1758_918)"/>
<circle cx="11.7188" cy="22.5023" r="1.86977" fill="url(#paint5_linear_1758_918)"/>
<ellipse cx="23.8722" cy="23.4371" rx="1.86976" ry="1.86977" fill="url(#paint6_linear_1758_918)"/>
<circle cx="29.4815" cy="22.5023" r="1.86977" fill="url(#paint7_linear_1758_918)"/>
<circle cx="26.6769" cy="28.1117" r="1.86977" fill="url(#paint8_linear_1758_918)"/>
<ellipse cx="24.3396" cy="31.3838" rx="1.40232" ry="1.40232" fill="url(#paint9_linear_1758_918)"/>
<ellipse cx="15.9256" cy="31.3838" rx="1.40232" ry="1.40232" fill="url(#paint10_linear_1758_918)"/>
</g>
<defs>
<linearGradient id="paint0_linear_1758_918" x1="20.6001" y1="3.51245" x2="20.6001" y2="36.1749" gradientUnits="userSpaceOnUse">
<stop offset="0.614583" stop-color="#00FDEE"/>
<stop offset="1" stop-color="#3645FF"/>
</linearGradient>
<linearGradient id="paint1_linear_1758_918" x1="13.5885" y1="26.2419" x2="13.5885" y2="29.9815" gradientUnits="userSpaceOnUse">
<stop offset="0.614583" stop-color="#00FDEE"/>
<stop offset="1" stop-color="#3645FF"/>
</linearGradient>
<linearGradient id="paint2_linear_1758_918" x1="20.1327" y1="30.9163" x2="20.1327" y2="34.6558" gradientUnits="userSpaceOnUse">
<stop offset="0.614583" stop-color="#00FDEE"/>
<stop offset="1" stop-color="#3645FF"/>
</linearGradient>
<linearGradient id="paint3_linear_1758_918" x1="17.328" y1="21.5674" x2="17.328" y2="25.3069" gradientUnits="userSpaceOnUse">
<stop offset="0.614583" stop-color="#00FDEE"/>
<stop offset="1" stop-color="#3645FF"/>
</linearGradient>
<linearGradient id="paint4_linear_1758_918" x1="20.1327" y1="26.2419" x2="20.1327" y2="29.9815" gradientUnits="userSpaceOnUse">
<stop offset="0.614583" stop-color="#00FDEE"/>
<stop offset="1" stop-color="#3645FF"/>
</linearGradient>
<linearGradient id="paint5_linear_1758_918" x1="11.7188" y1="20.6326" x2="11.7188" y2="24.3721" gradientUnits="userSpaceOnUse">
<stop offset="0.614583" stop-color="#00FDEE"/>
<stop offset="1" stop-color="#3645FF"/>
</linearGradient>
<linearGradient id="paint6_linear_1758_918" x1="23.8722" y1="21.5674" x2="23.8722" y2="25.3069" gradientUnits="userSpaceOnUse">
<stop offset="0.614583" stop-color="#00FDEE"/>
<stop offset="1" stop-color="#3645FF"/>
</linearGradient>
<linearGradient id="paint7_linear_1758_918" x1="29.4815" y1="20.6326" x2="29.4815" y2="24.3721" gradientUnits="userSpaceOnUse">
<stop offset="0.614583" stop-color="#00FDEE"/>
<stop offset="1" stop-color="#3645FF"/>
</linearGradient>
<linearGradient id="paint8_linear_1758_918" x1="26.6769" y1="26.2419" x2="26.6769" y2="29.9815" gradientUnits="userSpaceOnUse">
<stop offset="0.614583" stop-color="#00FDEE"/>
<stop offset="1" stop-color="#3645FF"/>
</linearGradient>
<linearGradient id="paint9_linear_1758_918" x1="24.3396" y1="29.9814" x2="24.3396" y2="32.7861" gradientUnits="userSpaceOnUse">
<stop offset="0.614583" stop-color="#00FDEE"/>
<stop offset="1" stop-color="#3645FF"/>
</linearGradient>
<linearGradient id="paint10_linear_1758_918" x1="15.9256" y1="29.9814" x2="15.9256" y2="32.7861" gradientUnits="userSpaceOnUse">
<stop offset="0.614583" stop-color="#00FDEE"/>
<stop offset="1" stop-color="#3645FF"/>
</linearGradient>
<clipPath id="clip0_1758_918">
<rect width="40.2" height="40.2" fill="white" transform="translate(0.500122 1)"/>
</clipPath>
</defs>
</svg>
