<svg width="41" height="41" viewBox="0 0 41 41" fill="none" xmlns="http://www.w3.org/2000/svg">
<path d="M27.5094 3.14062V4.90691C26.4795 5.08378 25.5014 5.48617 24.6452 6.08527L23.3487 4.86671L21.6214 6.7134L22.8776 7.8905C22.3029 8.72803 21.9144 9.67901 21.7382 10.6794H19.9719V13.1919H21.7382C21.9216 14.2346 22.3337 15.1843 22.9166 16.0184L21.5812 17.3124L23.3902 19.1214L24.6841 17.7847C25.5183 18.3676 26.468 18.7797 27.5107 18.9631V20.7281H30.0232V18.9618C31.0234 18.7861 31.9744 18.398 32.812 17.8237L33.9879 19.0799L35.8346 17.3513L34.616 16.0574C35.2064 15.2157 35.6084 14.2421 35.7944 13.1906H37.5594V10.6781H35.7931C35.6123 9.66094 35.21 8.69596 34.6147 7.85156L35.7931 6.6732L34.0256 4.90691L32.8485 6.08527C32.0041 5.49002 31.0391 5.08773 30.0219 4.90691V3.14062H27.5094ZM28.7657 7.30258C29.3751 7.29857 29.9792 7.41563 30.5431 7.64697C31.1069 7.87831 31.6192 8.21931 32.0502 8.65019C32.4812 9.08108 32.8223 9.59326 33.0538 10.157C33.2853 10.7208 33.4025 11.3249 33.3987 11.9344C33.3987 14.516 31.3472 16.5674 28.7657 16.5674C26.1841 16.5674 24.1326 14.516 24.1326 11.9344C24.1326 9.35277 26.1841 7.30132 28.7657 7.30132V7.30258ZM12.4721 14.7207L10.1581 15.6629L11.0601 17.9367C9.8594 18.6552 8.84938 19.6523 8.11544 20.8437L5.87932 19.9392L4.93713 22.257L7.17326 23.1589C6.99678 23.8385 6.90479 24.5372 6.89939 25.2393C6.89939 25.9554 7.00617 26.6538 7.17326 27.3196L4.93713 28.2241L5.87932 30.5394L8.11544 29.6349C8.84268 30.8418 9.85347 31.8531 11.0601 32.5808L10.1556 34.8169L12.4734 35.7591L13.3779 33.523C14.0573 33.6999 14.7561 33.7919 15.4582 33.7969C16.1743 33.7969 16.8753 33.6901 17.5386 33.523L18.4431 35.7591L20.7583 34.8169L19.8538 32.5808C21.046 31.8479 22.0433 30.8377 22.7608 29.6362L25.0346 30.5381L25.9768 28.2229L23.703 27.3184C23.8663 26.6526 23.9768 25.9528 23.9768 25.238C23.9768 24.522 23.8675 23.821 23.7005 23.1564L25.978 22.2544L25.0359 19.9367L22.762 20.8412C22.0405 19.6529 21.0434 18.6558 19.8551 17.9342L20.7596 15.6604L18.4418 14.7182L17.5411 16.992C16.8609 16.8167 16.1619 16.7251 15.4595 16.7194C14.7434 16.7194 14.0449 16.8275 13.3791 16.9933L12.4746 14.7195L12.4721 14.7207ZM15.457 19.2332C18.8023 19.2332 21.4618 21.8964 21.4618 25.2405C21.4643 28.5859 18.8023 31.2856 15.457 31.2856C14.6628 31.2866 13.8763 31.1309 13.1424 30.8275C12.4086 30.524 11.7418 30.0788 11.1802 29.5173C10.6187 28.9557 10.1735 28.2889 9.87002 27.5551C9.56658 26.8212 9.4109 26.0347 9.41189 25.2405C9.41189 21.8952 12.1128 19.2332 15.457 19.2332Z" fill="url(#paint0_linear_1758_957)"/>
<defs>
<linearGradient id="paint0_linear_1758_957" x1="21.2483" y1="3.14062" x2="21.2483" y2="35.7591" gradientUnits="userSpaceOnUse">
<stop offset="0.5625" stop-color="#00FDEE"/>
<stop offset="1" stop-color="#3645FF"/>
</linearGradient>
</defs>
</svg>
